<svg width="19" height="14" viewBox="0 0 19 14" fill="none" xmlns="http://www.w3.org/2000/svg">
<g id="Group 2344">
<path id="Vector" d="M16.6923 1H2.30769C1.58547 1 1 1.52535 1 2.17341V12.1474C1 12.7954 1.58547 13.3208 2.30769 13.3208H16.6923C17.4145 13.3208 18 12.7954 18 12.1474V2.17341C18 1.52535 17.4145 1 16.6923 1Z" fill="#E6A141" stroke="#E6A141" stroke-linecap="round" stroke-linejoin="round"/>
<g id="Vector_2">
<path d="M2.30762 3.34668L8.79176 7.83251C8.99058 7.96678 9.24116 8.04031 9.49992 8.04031C9.75868 8.04031 10.0093 7.96678 10.2081 7.83251L16.6922 3.34668" fill="#E6A141"/>
<path d="M2.30762 3.34668L8.79176 7.83251C8.99058 7.96678 9.24116 8.04031 9.49992 8.04031C9.75868 8.04031 10.0093 7.96678 10.2081 7.83251L16.6922 3.34668" stroke="white" stroke-linecap="round" stroke-linejoin="round"/>
</g>
</g>
</svg>
