<svg width="16" height="15" viewBox="0 0 16 15" fill="none" xmlns="http://www.w3.org/2000/svg">
<path d="M10.1565 14.4125C10.9129 14.8707 11.8142 15.0703 12.7089 14.9779C13.6036 14.8855 14.4371 14.5067 15.0693 13.9051L15.622 13.3977C15.8643 13.165 16 12.8525 16 12.527C16 12.2016 15.8643 11.8891 15.622 11.6564L13.2762 9.47679C13.0304 9.25 12.6996 9.12292 12.355 9.12292C12.0104 9.12292 11.6796 9.25 11.4339 9.47679V9.47679C11.186 9.7043 10.8532 9.83168 10.5066 9.83168C10.16 9.83168 9.82711 9.7043 9.57927 9.47679L5.89467 6.01716C5.77175 5.90342 5.67414 5.76788 5.60752 5.61841C5.5409 5.46893 5.50659 5.30852 5.50659 5.14648C5.50659 4.98445 5.5409 4.82403 5.60752 4.67456C5.67414 4.52509 5.77175 4.38954 5.89467 4.27581V4.27581C6.1362 4.04505 6.27154 3.73445 6.27154 3.4109C6.27154 3.08736 6.1362 2.77676 5.89467 2.546L3.56108 0.354897C3.31324 0.127386 2.9804 0 2.63379 0C2.28718 0 1.95434 0.127386 1.7065 0.354897L1.16609 0.873841C0.525393 1.46745 0.121914 2.25008 0.0234972 3.09016C-0.0749201 3.93023 0.137726 4.7765 0.62568 5.48668C3.16811 9.00481 6.40307 12.0344 10.1565 14.4125V14.4125Z" fill="#E6A141"/>
</svg>
