<svg width="22" height="22" viewBox="0 0 22 22" fill="none" xmlns="http://www.w3.org/2000/svg">
<g id="Group 1000002574">
<g id="Group 1000002574_2">
<g id="Group 1000002572">
<g id="Group">
<path id="Vector" d="M19.4615 1H2.53846C1.68879 1 1 1.68879 1 2.53846V19.4615C1 20.3112 1.68879 21 2.53846 21H19.4615C20.3112 21 21 20.3112 21 19.4615V2.53846C21 1.68879 20.3112 1 19.4615 1Z" stroke="white" stroke-width="2" stroke-linecap="round" stroke-linejoin="round"/>
<path id="Vector_2" d="M14.0772 1V8.69231C14.0772 8.89632 13.9961 9.09198 13.8519 9.23623C13.7076 9.38049 13.512 9.46154 13.308 9.46154H8.69257C8.48856 9.46154 8.2929 9.38049 8.14864 9.23623C8.00438 9.09198 7.92334 8.89632 7.92334 8.69231V1" stroke="white" stroke-width="2" stroke-linecap="round" stroke-linejoin="round"/>
<path id="Vector_3" d="M13.3074 17.1538H17.1535" stroke="white" stroke-width="2" stroke-linecap="round" stroke-linejoin="round"/>
</g>
</g>
</g>
</g>
</svg>
