<svg width="22" height="22" viewBox="0 0 22 22" fill="none" xmlns="http://www.w3.org/2000/svg">
<g id="Group">
<path id="Vector" d="M2.53846 4.0769C2.13044 4.0769 1.73912 4.23899 1.4506 4.52751C1.16209 4.81603 1 5.20734 1 5.61537V19.4615C1 19.8695 1.16209 20.2609 1.4506 20.5494C1.73912 20.8379 2.13044 21 2.53846 21H19.4615C19.8696 21 20.2609 20.8379 20.5494 20.5494C20.8379 20.2609 21 19.8695 21 19.4615V5.61537C21 5.20734 20.8379 4.81603 20.5494 4.52751C20.2609 4.23899 19.8696 4.0769 19.4615 4.0769H16.3846" stroke="white" stroke-width="2" stroke-linecap="round" stroke-linejoin="round"/>
<path id="Vector_2" d="M5.61499 1V7.15385" stroke="white" stroke-width="2" stroke-linecap="round" stroke-linejoin="round"/>
<path id="Vector_3" d="M16.385 1V7.15385" stroke="white" stroke-width="2" stroke-linecap="round" stroke-linejoin="round"/>
<path id="Vector_4" d="M5.61499 4.0769H13.3073" stroke="white" stroke-width="2" stroke-linecap="round" stroke-linejoin="round"/>
<path id="Vector_5" d="M5.61518 12.5385C6.04001 12.5385 6.38441 12.1941 6.38441 11.7692C6.38441 11.3444 6.04001 11 5.61518 11C5.19034 11 4.84595 11.3444 4.84595 11.7692C4.84595 12.1941 5.19034 12.5385 5.61518 12.5385Z" fill="white" stroke="white" stroke-width="2" stroke-linecap="round" stroke-linejoin="round"/>
<path id="Vector_6" d="M10.9995 12.5385C11.4243 12.5385 11.7687 12.1941 11.7687 11.7692C11.7687 11.3444 11.4243 11 10.9995 11C10.5746 11 10.2302 11.3444 10.2302 11.7692C10.2302 12.1941 10.5746 12.5385 10.9995 12.5385Z" fill="white" stroke="white" stroke-width="2" stroke-linecap="round" stroke-linejoin="round"/>
<path id="Vector_7" d="M16.3842 12.5385C16.8091 12.5385 17.1535 12.1941 17.1535 11.7692C17.1535 11.3444 16.8091 11 16.3842 11C15.9594 11 15.615 11.3444 15.615 11.7692C15.615 12.1941 15.9594 12.5385 16.3842 12.5385Z" fill="white" stroke="white" stroke-width="2" stroke-linecap="round" stroke-linejoin="round"/>
<path id="Vector_8" d="M5.61518 17.1539C6.04001 17.1539 6.38441 16.8095 6.38441 16.3846C6.38441 15.9598 6.04001 15.6154 5.61518 15.6154C5.19034 15.6154 4.84595 15.9598 4.84595 16.3846C4.84595 16.8095 5.19034 17.1539 5.61518 17.1539Z" fill="white" stroke="white" stroke-width="2" stroke-linecap="round" stroke-linejoin="round"/>
</g>
</svg>
