<svg width="22" height="22" viewBox="0 0 22 22" fill="none" xmlns="http://www.w3.org/2000/svg">
<g id="Group">
<path id="Vector" d="M13.3077 1H2.53846C2.13044 1 1.73912 1.16209 1.4506 1.4506C1.16209 1.73912 1 2.13044 1 2.53846V19.4615C1 19.8696 1.16209 20.2609 1.4506 20.5494C1.73912 20.8379 2.13044 21 2.53846 21H19.4615C19.8696 21 20.2609 20.8379 20.5494 20.5494C20.8379 20.2609 21 19.8696 21 19.4615V8.69231L13.3077 1Z" stroke="white" stroke-width="2" stroke-linecap="round" stroke-linejoin="round"/>
<path id="Vector_2" d="M13.3074 7.92308V1L20.9997 8.69231H14.0766C13.8726 8.69231 13.6769 8.61126 13.5327 8.467C13.3884 8.32275 13.3074 8.12709 13.3074 7.92308Z" stroke="white" stroke-width="2" stroke-linecap="round" stroke-linejoin="round"/>
<path id="Vector_3" d="M7.15381 7.15385V4.84616" stroke="white" stroke-width="2" stroke-linecap="round" stroke-linejoin="round"/>
<path id="Vector_4" d="M4.84619 13.3077C4.84619 14.4615 5.87696 14.8461 7.15388 14.8461C8.43081 14.8461 9.46158 14.8461 9.46158 13.3077C9.46158 11 4.84619 11 4.84619 8.6923C4.84619 7.15384 5.87696 7.15384 7.15388 7.15384C8.43081 7.15384 9.46158 7.73845 9.46158 8.6923" stroke="white" stroke-width="2" stroke-linecap="round" stroke-linejoin="round"/>
<path id="Vector_5" d="M7.15381 14.8462V17.1539" stroke="white" stroke-width="2" stroke-linecap="round" stroke-linejoin="round"/>
<path id="Vector_6" d="M13.3074 14.8462H17.9228" stroke="white" stroke-width="2" stroke-linecap="round" stroke-linejoin="round"/>
</g>
</svg>
