<svg width="22" height="18" viewBox="0 0 22 18" fill="none" xmlns="http://www.w3.org/2000/svg">
<g id="Group">
<path id="Vector" d="M13.3078 4.07689H17.9231C18.7392 4.07689 19.5218 4.40106 20.0988 4.97809C20.6758 5.55512 21 6.33773 21 7.15377V13.3075H18.6923" stroke="white" stroke-width="2" stroke-linecap="round" stroke-linejoin="round"/>
<path id="Vector_2" d="M2.53852 13.3075H1.00008V2.53844C1.00008 2.13042 1.16216 1.73911 1.45068 1.4506C1.73919 1.16209 2.1305 1 2.53852 1H11.7692C12.1772 1 12.5685 1.16209 12.857 1.4506C13.1455 1.73911 13.3076 2.13042 13.3076 2.53844V11.2768" stroke="white" stroke-width="2" stroke-linecap="round" stroke-linejoin="round"/>
<path id="Vector_3" d="M12.5386 13.3075H8.69247" stroke="white" stroke-width="2" stroke-linecap="round" stroke-linejoin="round"/>
<path id="Vector_4" d="M15.6157 16.3844C13.9164 16.3844 12.5389 15.0069 12.5389 13.3075C12.5389 11.6082 13.9164 10.2307 15.6157 10.2307C17.3151 10.2307 18.6926 11.6082 18.6926 13.3075C18.6926 15.0069 17.3151 16.3844 15.6157 16.3844Z" stroke="white" stroke-width="2" stroke-linecap="round" stroke-linejoin="round"/>
<path id="Vector_5" d="M5.61574 16.3844C3.91642 16.3844 2.53886 15.0069 2.53886 13.3075C2.53886 11.6082 3.91642 10.2307 5.61574 10.2307C7.31506 10.2307 8.69263 11.6082 8.69263 13.3075C8.69263 15.0069 7.31506 16.3844 5.61574 16.3844Z" stroke="white" stroke-width="2" stroke-linecap="round" stroke-linejoin="round"/>
</g>
</svg>
